<?xml version="1.0" encoding="UTF-8" standalone="no"?>
<!DOCTYPE svg PUBLIC "-//W3C//DTD SVG 1.1//EN" "http://www.w3.org/Graphics/SVG/1.1/DTD/svg11.dtd">
<svg width="100%" height="100%" viewBox="0 0 1984 2028" version="1.1" xmlns="http://www.w3.org/2000/svg" xmlns:xlink="http://www.w3.org/1999/xlink" xml:space="preserve" xmlns:serif="http://www.serif.com/" style="fill-rule:evenodd;clip-rule:evenodd;stroke-linejoin:round;stroke-miterlimit:2;">
    <g transform="matrix(5.55556,0,0,5.55556,0,0)">
        <g transform="matrix(1.82392,0,0,1.86628,-50.8758,-795.101)">
            <g>
                <g>
                    <g transform="matrix(1,0,0,1,85.8376,77.7899)">
                        <circle cx="39.818" cy="445.933" r="97.687"/>
                    </g>
                    <g transform="matrix(0.877956,0,0,0.877956,-400.813,139.555)">
                        <g>
                            <g transform="matrix(1,0,0,1,527.258,412.416)">
                                <g transform="matrix(36,0,0,36,0,0)">
                                    <path d="M0.105,-0.7L0.205,-0.7L0.205,-0.087L0.584,-0.087L0.584,0L0.105,0L0.105,-0.7Z" style="fill:white;fill-rule:nonzero;"/>
                                </g>
                            </g>
                            <g transform="matrix(1,0,0,1,548.39,412.416)">
                                <g transform="matrix(36,0,0,36,0,0)">
                                    <path d="M0.33,-0.078C0.393,-0.078 0.444,-0.099 0.483,-0.142L0.535,-0.08C0.512,-0.052 0.482,-0.031 0.447,-0.016C0.411,-0.001 0.371,0.006 0.327,0.006C0.271,0.006 0.221,-0.006 0.178,-0.029C0.135,-0.051 0.101,-0.084 0.078,-0.125C0.054,-0.166 0.042,-0.213 0.042,-0.265C0.042,-0.316 0.054,-0.363 0.077,-0.404C0.099,-0.445 0.131,-0.478 0.172,-0.501C0.212,-0.524 0.257,-0.535 0.308,-0.535C0.356,-0.535 0.4,-0.524 0.439,-0.503C0.478,-0.481 0.51,-0.45 0.533,-0.411C0.556,-0.372 0.568,-0.326 0.569,-0.275L0.148,-0.193C0.161,-0.156 0.184,-0.128 0.216,-0.108C0.247,-0.088 0.285,-0.078 0.33,-0.078ZM0.308,-0.454C0.275,-0.454 0.245,-0.446 0.219,-0.431C0.192,-0.416 0.172,-0.394 0.157,-0.367C0.142,-0.339 0.135,-0.307 0.135,-0.27L0.135,-0.26L0.474,-0.324C0.465,-0.363 0.446,-0.394 0.416,-0.418C0.386,-0.442 0.35,-0.454 0.308,-0.454Z" style="fill:white;fill-rule:nonzero;"/>
                                </g>
                                <g transform="matrix(36,0,0,36,22.032,0)">
                                    <path d="M0.591,-0.53L0.591,0L0.499,0L0.499,-0.084C0.478,-0.055 0.451,-0.032 0.418,-0.017C0.385,-0.002 0.349,0.006 0.31,0.006C0.259,0.006 0.213,-0.005 0.172,-0.028C0.131,-0.051 0.099,-0.083 0.077,-0.124C0.054,-0.165 0.042,-0.212 0.042,-0.265C0.042,-0.318 0.054,-0.365 0.077,-0.406C0.099,-0.447 0.131,-0.478 0.172,-0.501C0.213,-0.524 0.259,-0.535 0.31,-0.535C0.348,-0.535 0.383,-0.528 0.415,-0.514C0.447,-0.499 0.474,-0.478 0.495,-0.45L0.495,-0.53L0.591,-0.53ZM0.318,-0.078C0.351,-0.078 0.382,-0.086 0.409,-0.102C0.436,-0.117 0.458,-0.139 0.473,-0.168C0.488,-0.196 0.496,-0.228 0.496,-0.265C0.496,-0.302 0.488,-0.334 0.473,-0.363C0.458,-0.391 0.436,-0.413 0.409,-0.428C0.382,-0.443 0.351,-0.451 0.318,-0.451C0.284,-0.451 0.254,-0.443 0.227,-0.428C0.2,-0.413 0.178,-0.391 0.163,-0.363C0.147,-0.334 0.139,-0.302 0.139,-0.265C0.139,-0.228 0.147,-0.196 0.163,-0.168C0.178,-0.139 0.2,-0.117 0.227,-0.102C0.254,-0.086 0.284,-0.078 0.318,-0.078Z" style="fill:white;fill-rule:nonzero;"/>
                                </g>
                                <g transform="matrix(36,0,0,36,46.584,0)">
                                    <path d="M0.183,-0.441C0.2,-0.472 0.224,-0.495 0.257,-0.511C0.29,-0.527 0.329,-0.535 0.376,-0.535L0.376,-0.442C0.371,-0.443 0.363,-0.443 0.354,-0.443C0.302,-0.443 0.261,-0.428 0.232,-0.397C0.202,-0.366 0.187,-0.321 0.187,-0.264L0.187,0L0.091,0L0.091,-0.53L0.183,-0.53L0.183,-0.441Z" style="fill:white;fill-rule:nonzero;"/>
                                </g>
                            </g>
                            <g transform="matrix(1,0,0,1,609.482,412.416)">
                                <g transform="matrix(36,0,0,36,0,0)">
                                    <path d="M0.374,-0.535C0.441,-0.535 0.495,-0.516 0.535,-0.477C0.574,-0.438 0.594,-0.38 0.594,-0.305L0.594,0L0.498,0L0.498,-0.294C0.498,-0.345 0.486,-0.384 0.461,-0.41C0.436,-0.436 0.401,-0.449 0.355,-0.449C0.303,-0.449 0.262,-0.434 0.232,-0.404C0.202,-0.373 0.187,-0.33 0.187,-0.273L0.187,0L0.091,0L0.091,-0.53L0.183,-0.53L0.183,-0.45C0.202,-0.477 0.229,-0.498 0.262,-0.513C0.295,-0.528 0.332,-0.535 0.374,-0.535Z" style="fill:white;fill-rule:nonzero;"/>
                                </g>
                            </g>
                        </g>
                        <g transform="matrix(1,0,0,1,527.258,449.991)">
                            <g transform="matrix(36,0,0,36,0,0)">
                                <path d="M0.91,-0.526L0.91,-0.235C0.91,-0.157 0.891,-0.098 0.854,-0.057C0.817,-0.016 0.762,0.005 0.689,0.005C0.643,0.005 0.604,-0.004 0.574,-0.022C0.543,-0.039 0.519,-0.067 0.502,-0.106C0.485,-0.068 0.462,-0.04 0.431,-0.022C0.4,-0.004 0.362,0.005 0.315,0.005C0.242,0.005 0.187,-0.016 0.15,-0.057C0.113,-0.098 0.094,-0.157 0.094,-0.235L0.094,-0.526L0.165,-0.526L0.165,-0.241C0.165,-0.179 0.177,-0.133 0.201,-0.104C0.225,-0.074 0.263,-0.059 0.315,-0.059C0.366,-0.059 0.405,-0.074 0.43,-0.104C0.455,-0.134 0.467,-0.18 0.467,-0.243L0.467,-0.526L0.538,-0.526L0.538,-0.243C0.538,-0.18 0.55,-0.134 0.575,-0.104C0.6,-0.074 0.638,-0.059 0.69,-0.059C0.741,-0.059 0.778,-0.074 0.803,-0.104C0.827,-0.133 0.839,-0.179 0.839,-0.241L0.839,-0.526L0.91,-0.526Z" style="fill:rgb(149,149,149);fill-rule:nonzero;"/>
                            </g>
                            <g transform="matrix(36,0,0,36,36.144,0)">
                                <path d="M0.099,-0.526L0.17,-0.526L0.17,0L0.099,0L0.099,-0.526ZM0.135,-0.641C0.12,-0.641 0.108,-0.646 0.098,-0.656C0.088,-0.666 0.083,-0.678 0.083,-0.692C0.083,-0.705 0.088,-0.717 0.098,-0.727C0.108,-0.737 0.12,-0.742 0.135,-0.742C0.15,-0.742 0.162,-0.737 0.172,-0.728C0.182,-0.718 0.187,-0.706 0.187,-0.693C0.187,-0.678 0.182,-0.666 0.172,-0.656C0.162,-0.646 0.15,-0.641 0.135,-0.641Z" style="fill:rgb(149,149,149);fill-rule:nonzero;"/>
                            </g>
                            <g transform="matrix(36,0,0,36,45.828,0)">
                                <path d="M0.358,-0.032C0.345,-0.02 0.328,-0.011 0.309,-0.005C0.29,0.002 0.269,0.005 0.248,0.005C0.199,0.005 0.161,-0.008 0.134,-0.035C0.107,-0.062 0.094,-0.099 0.094,-0.148L0.094,-0.641L0.165,-0.641L0.165,-0.526L0.324,-0.526L0.324,-0.466L0.165,-0.466L0.165,-0.152C0.165,-0.121 0.173,-0.097 0.188,-0.081C0.203,-0.064 0.226,-0.056 0.255,-0.056C0.287,-0.056 0.313,-0.065 0.333,-0.083L0.358,-0.032Z" style="fill:rgb(149,149,149);fill-rule:nonzero;"/>
                            </g>
                            <g transform="matrix(36,0,0,36,59.796,0)">
                                <path d="M0.367,-0.53C0.433,-0.53 0.486,-0.511 0.525,-0.473C0.564,-0.434 0.583,-0.378 0.583,-0.305L0.583,0L0.512,0L0.512,-0.298C0.512,-0.353 0.498,-0.394 0.471,-0.423C0.444,-0.452 0.405,-0.466 0.354,-0.466C0.297,-0.466 0.253,-0.449 0.22,-0.416C0.187,-0.382 0.17,-0.335 0.17,-0.276L0.17,0L0.099,0L0.099,-0.742L0.17,-0.742L0.17,-0.434C0.189,-0.465 0.216,-0.488 0.25,-0.505C0.284,-0.522 0.323,-0.53 0.367,-0.53Z" style="fill:rgb(149,149,149);fill-rule:nonzero;"/>
                            </g>
                        </g>
                        <g>
                            <g transform="matrix(1,0,0,1,527.258,487.567)">
                                <g transform="matrix(36,0,0,36,0,0)">
                                    <path d="M0.394,-0.7C0.459,-0.7 0.515,-0.689 0.563,-0.668C0.611,-0.647 0.648,-0.616 0.674,-0.576C0.7,-0.536 0.713,-0.489 0.713,-0.436C0.713,-0.383 0.7,-0.336 0.674,-0.296C0.648,-0.256 0.611,-0.225 0.563,-0.204C0.515,-0.183 0.459,-0.172 0.394,-0.172L0.293,-0.172L0.293,0L0.057,0L0.057,-0.7L0.394,-0.7ZM0.379,-0.354C0.411,-0.354 0.435,-0.361 0.451,-0.376C0.467,-0.39 0.475,-0.41 0.475,-0.436C0.475,-0.462 0.467,-0.482 0.451,-0.497C0.435,-0.511 0.411,-0.518 0.379,-0.518L0.293,-0.518L0.293,-0.354L0.379,-0.354Z" style="fill:rgb(0,123,235);fill-rule:nonzero;"/>
                                </g>
                                <g transform="matrix(36,0,0,36,26.748,0)">
                                    <path d="M0.265,-0.488C0.305,-0.534 0.364,-0.557 0.442,-0.557L0.442,-0.357C0.424,-0.36 0.407,-0.361 0.392,-0.361C0.315,-0.361 0.276,-0.322 0.276,-0.243L0.276,0L0.05,0L0.05,-0.547L0.265,-0.547L0.265,-0.488Z" style="fill:rgb(0,123,235);fill-rule:nonzero;"/>
                                </g>
                            </g>
                            <g transform="matrix(1,0,0,1,570.242,487.567)">
                                <g transform="matrix(36,0,0,36,0,0)">
                                    <path d="M0.65,-0.547L0.65,0L0.435,0L0.435,-0.045C0.402,-0.008 0.352,0.01 0.285,0.01C0.237,0.01 0.193,-0.002 0.153,-0.025C0.112,-0.048 0.08,-0.081 0.057,-0.124C0.033,-0.167 0.021,-0.217 0.021,-0.274C0.021,-0.331 0.033,-0.381 0.057,-0.424C0.08,-0.466 0.112,-0.5 0.153,-0.523C0.193,-0.546 0.237,-0.557 0.285,-0.557C0.346,-0.557 0.392,-0.541 0.424,-0.51L0.424,-0.547L0.65,-0.547ZM0.339,-0.166C0.365,-0.166 0.386,-0.175 0.403,-0.195C0.42,-0.214 0.428,-0.24 0.428,-0.274C0.428,-0.308 0.42,-0.334 0.403,-0.353C0.386,-0.372 0.365,-0.381 0.339,-0.381C0.313,-0.381 0.292,-0.372 0.275,-0.353C0.258,-0.334 0.25,-0.308 0.25,-0.274C0.25,-0.24 0.258,-0.214 0.275,-0.195C0.292,-0.175 0.313,-0.166 0.339,-0.166Z" style="fill:rgb(0,123,235);fill-rule:nonzero;"/>
                                </g>
                                <g transform="matrix(36,0,0,36,25.2,0)">
                                    <path d="M0.43,-0.557C0.497,-0.557 0.552,-0.537 0.593,-0.496C0.634,-0.455 0.654,-0.394 0.654,-0.312L0.654,0L0.428,0L0.428,-0.273C0.428,-0.336 0.406,-0.367 0.361,-0.367C0.336,-0.367 0.315,-0.358 0.3,-0.341C0.284,-0.323 0.276,-0.295 0.276,-0.257L0.276,0L0.05,0L0.05,-0.547L0.265,-0.547L0.265,-0.493C0.286,-0.514 0.311,-0.53 0.339,-0.541C0.367,-0.552 0.397,-0.557 0.43,-0.557Z" style="fill:rgb(0,123,235);fill-rule:nonzero;"/>
                                </g>
                                <g transform="matrix(36,0,0,36,50.832,0)">
                                    <path d="M0.65,-0.547L0.65,0L0.435,0L0.435,-0.045C0.402,-0.008 0.352,0.01 0.285,0.01C0.237,0.01 0.193,-0.002 0.153,-0.025C0.112,-0.048 0.08,-0.081 0.057,-0.124C0.033,-0.167 0.021,-0.217 0.021,-0.274C0.021,-0.331 0.033,-0.381 0.057,-0.424C0.08,-0.466 0.112,-0.5 0.153,-0.523C0.193,-0.546 0.237,-0.557 0.285,-0.557C0.346,-0.557 0.392,-0.541 0.424,-0.51L0.424,-0.547L0.65,-0.547ZM0.339,-0.166C0.365,-0.166 0.386,-0.175 0.403,-0.195C0.42,-0.214 0.428,-0.24 0.428,-0.274C0.428,-0.308 0.42,-0.334 0.403,-0.353C0.386,-0.372 0.365,-0.381 0.339,-0.381C0.313,-0.381 0.292,-0.372 0.275,-0.353C0.258,-0.334 0.25,-0.308 0.25,-0.274C0.25,-0.24 0.258,-0.214 0.275,-0.195C0.292,-0.175 0.313,-0.166 0.339,-0.166Z" style="fill:rgb(0,123,235);fill-rule:nonzero;"/>
                                </g>
                                <g transform="matrix(36,0,0,36,76.032,0)">
                                    <path d="M0.659,-0.547L0.439,0L0.205,0L-0.015,-0.547L0.217,-0.547L0.327,-0.254L0.445,-0.547L0.659,-0.547Z" style="fill:rgb(0,123,235);fill-rule:nonzero;"/>
                                </g>
                            </g>
                        </g>
                    </g>
                </g>
            </g>
        </g>
    </g>
</svg>
